<?xml version="1.0" encoding="iso-8859-1"?>
<!-- Generator: Adobe Illustrator 19.0.0, SVG Export Plug-In . SVG Version: 6.00 Build 0)  -->
<svg version="1.1" id="Capa_1" xmlns="http://www.w3.org/2000/svg" xmlns:xlink="http://www.w3.org/1999/xlink" x="0px" y="0px"
	 viewBox="0 0 512.001 512.001" style="enable-background:new 0 0 512.001 512.001;" xml:space="preserve">
<g>
	<g>
		<circle cx="436" cy="105" r="15"/>
	</g>
</g>
<g>
	<g>
		<path d="M511.552,161.362l-16.356-65.426C485.566,57.412,449.88,30,409.746,30c-25.911,0-50.286,11.417-66.873,31.322
			l-22.754,27.305C297.945,70.096,270.251,60,241,60c-25.013,0-48.527-9.74-66.213-27.426l-28.181-28.18
			c-4.291-4.291-10.742-5.573-16.347-3.251C124.655,3.464,121,8.933,121,15v11.833c0,30.545,6.549,60.911,19.002,88.751
			c-8.175,2.9-16.849,4.416-25.517,4.416H15c-4.494,0-8.751,2.015-11.6,5.49c-2.85,3.475-3.99,8.045-3.109,12.452
			c15.446,77.23,74.711,137.034,148.865,155.839L64.873,394.922L4.308,456.48c-3.637,3.697-5.106,9.01-3.887,14.05
			c1.221,5.04,4.958,9.092,9.883,10.716l91,30c3.778,1.246,7.906,0.942,11.471-0.862c3.557-1.8,6.251-4.943,7.486-8.733L146.886,420
			h109.105c107.523,0,195-87.476,195-194.999V180H497c4.619,0,8.98-2.128,11.823-5.769
			C511.666,170.59,512.673,165.843,511.552,161.362z M153.575,53.787C176.926,77.139,207.974,90,241,90
			c22.149,0,43.121,7.644,59.914,21.673l-17.067,20.479l-40.382-20.191c-23.479-11.739-50.554-14.196-75.545-7.388
			c-7.456-16.347-12.531-33.73-15.059-51.5L153.575,53.787z M96.405,478.043l-53.781-17.73L82.285,420h33.046L96.405,478.043z
			 M435.991,150c-8.284,0-14.9,6.716-14.9,15v60.001c0,90.981-74.119,164.999-165.1,164.999c-17.844,0-133.828,0-147.966,0
			l75.499-90.598c5.107,0.389,10.257,0.599,15.447,0.599c47.784,0,91.969-25.933,115.311-67.68
			c4.043-7.231,1.458-16.37-5.772-20.413c-7.23-4.044-16.37-1.458-20.413,5.772C270.052,249.952,235.901,270,198.971,270
			c-75.813,0-142.323-49.475-164.645-120h80.159c16.392,0,32.805-3.875,47.466-11.205c21.32-10.66,46.777-10.66,68.098,0
			l79.243,39.622c7.408,3.705,16.42,0.703,20.124-6.708c3.705-7.41,0.702-16.419-6.708-20.125l-11.296-5.648l54.508-65.409
			C376.791,67.482,392.765,60,409.746,60c26.389,0,50.086,18.173,56.346,43.212L477.788,150H435.991z"/>
	</g>
</g>
<g>
</g>
<g>
</g>
<g>
</g>
<g>
</g>
<g>
</g>
<g>
</g>
<g>
</g>
<g>
</g>
<g>
</g>
<g>
</g>
<g>
</g>
<g>
</g>
<g>
</g>
<g>
</g>
<g>
</g>
</svg>
